<svg id="Layer_1" data-name="Layer 1" xmlns="http://www.w3.org/2000/svg" viewBox="0 0 841.89 595.28"><defs><style>.cls-1{font-size:11px;}.cls-1,.cls-11{fill:#231f20;font-family:AcuminProSemiCond-Thin, Acumin Pro SemiCondensed;font-weight:200;}.cls-2{letter-spacing:0em;}.cls-3{letter-spacing:-0.01em;}.cls-4{letter-spacing:0.02em;}.cls-5{letter-spacing:0.02em;}.cls-6{letter-spacing:0em;}.cls-7{letter-spacing:0.02em;}.cls-8{letter-spacing:0em;}.cls-9{letter-spacing:0.01em;}.cls-10{letter-spacing:-0.03em;}.cls-11{font-size:72px;}.cls-12{letter-spacing:0em;}.cls-13{letter-spacing:-0.01em;}.cls-14{letter-spacing:0.02em;}.cls-15{letter-spacing:0.02em;}.cls-16{letter-spacing:0.02em;}.cls-17{fill:#fff;}</style></defs><text class="cls-1" transform="translate(427.02 375.88)">- <tspan class="cls-2" x="6.13" y="0">A</tspan><tspan x="12.33" y="0">L</tspan><tspan class="cls-3" x="17.69" y="0">E</tspan><tspan class="cls-4" x="23.5" y="0">K</tspan><tspan class="cls-5" x="29.86" y="0">S</tspan><tspan class="cls-2" x="35.85" y="0">AN</tspan><tspan class="cls-6" x="49.41" y="0">D</tspan><tspan class="cls-7" x="56.56" y="0">R</tspan><tspan class="cls-8" x="62.98" y="0">A D</tspan><tspan class="cls-9" x="78.82" y="0">AH</tspan><tspan class="cls-10" x="92.23" y="0">L</tspan><tspan x="97.25" y="0">QVIST -</tspan></text><text class="cls-11" transform="translate(286.1 345.44)"><tspan class="cls-12">A</tspan><tspan x="40.61" y="0">L</tspan><tspan class="cls-13" x="75.67" y="0">E</tspan><tspan class="cls-14" x="113.69" y="0">K</tspan><tspan class="cls-15" x="155.37" y="0">S</tspan><tspan class="cls-12" x="194.54" y="0">AN</tspan><tspan x="283.31" y="0">D</tspan><tspan class="cls-16" x="330.11" y="0">R</tspan><tspan x="372.16" y="0">A</tspan></text><text class="cls-11" transform="matrix(1, 0, 0, -1, 286.1, 305.3)"><tspan class="cls-12">A</tspan><tspan x="40.61" y="0">L</tspan><tspan class="cls-13" x="75.67" y="0">E</tspan><tspan class="cls-14" x="113.69" y="0">K</tspan><tspan class="cls-15" x="155.37" y="0">S</tspan><tspan class="cls-12" x="194.54" y="0">AN</tspan><tspan x="283.31" y="0">D</tspan><tspan class="cls-16" x="330.11" y="0">R</tspan><tspan x="372.16" y="0">A</tspan></text><path class="cls-17" d="M654.71,307.8c3.22,0,3.23-5,0-5s-3.22,5,0,5Z"/><path class="cls-17" d="M649.85,312.26,650,312a2,2,0,0,0,.3-.93,1.89,1.89,0,0,0-.05-1,1.78,1.78,0,0,0-.44-.85,1.83,1.83,0,0,0-.71-.64l-.59-.26a2.5,2.5,0,0,0-1.33,0l-.6.26a2.56,2.56,0,0,0-.9.89l-.17.26a1.82,1.82,0,0,0-.29.93,1.85,1.85,0,0,0,0,1,1.89,1.89,0,0,0,.45.85,1.83,1.83,0,0,0,.7.65l.6.25a2.5,2.5,0,0,0,1.33,0l.59-.25a2.43,2.43,0,0,0,.9-.9Z"/><path class="cls-17" d="M646.1,315.11a3.66,3.66,0,0,0,1.51,0,3,3,0,0,0,.82-.35,3.59,3.59,0,0,0,1.22-1.29,8.91,8.91,0,0,0,.76-2.25,17.59,17.59,0,0,0,.45-4.4,2.61,2.61,0,0,0-.73-1.77,2.57,2.57,0,0,0-1.77-.73,2.49,2.49,0,0,0-2.5,2.5,14.67,14.67,0,0,1-.12,2.39l.09-.66a12.35,12.35,0,0,1-.66,2.81l.25-.6a1.82,1.82,0,0,1-.2.36l.4-.51a1.15,1.15,0,0,1-.22.22l.51-.39-.13.07.6-.25-.13,0,.66-.09h-.07l.66.09h-.07a2,2,0,0,0-1-.05,2,2,0,0,0-.93.3,2.49,2.49,0,0,0-.89,3.42,2.36,2.36,0,0,0,1.49,1.15Z"/><path class="cls-17" d="M650.3,309.63a9.19,9.19,0,0,0,.25-2.51l-4.66,1.26a2.76,2.76,0,0,0,1.62,1.24,2.61,2.61,0,0,0,1.49,0,2.75,2.75,0,0,0,1.62-1.29,2.84,2.84,0,0,0,.37-1.56,11.42,11.42,0,0,0-.55-2.53,2.65,2.65,0,0,0-1.14-1.5,2.55,2.55,0,0,0-1.93-.25,2.46,2.46,0,0,0-1.49,1.15,2.49,2.49,0,0,0-.26,1.92,11.76,11.76,0,0,1,.45,1.84l-.09-.66a1.34,1.34,0,0,1,0,.2l.09-.66a.27.27,0,0,1,0,.12l.25-.59,0,.06.39-.51a.12.12,0,0,1-.06.06l.51-.39,0,0,.6-.25-.08,0,.66-.09a.11.11,0,0,1-.08,0l.66.09h0l.59.25,0,0,.5.4,0,0,.39.51,0,0-.39-.5a1.77,1.77,0,0,0-.8-.52,2.41,2.41,0,0,0-1.63-.13,3,3,0,0,0-1.1.65,2.7,2.7,0,0,0-.73,1.76,7.31,7.31,0,0,1,0,1.24l.09-.67a6,6,0,0,1-.12.61,2.63,2.63,0,0,0,.26,1.92,2.5,2.5,0,0,0,3.42.9,2.57,2.57,0,0,0,1.15-1.49Z"/><path class="cls-17" d="M657.34,347a2.76,2.76,0,0,0,0-1.48c0-.07,0-.13-.05-.19l.09.66a1.48,1.48,0,0,1,0-.21,2.44,2.44,0,0,0-.09-.76,2.72,2.72,0,0,0-.68-1.17,2.5,2.5,0,0,0-2.43-.64,2.64,2.64,0,0,0-1.14.67,2.82,2.82,0,0,0-.43.55l-.13.31-.13.31s0,0,0,0a6.09,6.09,0,0,0-.1.73l.09-.66a.38.38,0,0,1,0,.1l.26-.6,0,0,.39-.5h0l4.27,1.76a4.34,4.34,0,0,1,0-.51,1.88,1.88,0,0,0-.22-1,1.85,1.85,0,0,0-.52-.81,1.83,1.83,0,0,0-.8-.51,1.88,1.88,0,0,0-1-.22L654,343a2.5,2.5,0,0,0-1.1.64l-.39.51a2.43,2.43,0,0,0-.34,1.26,4.34,4.34,0,0,0,0,.51l.09.67.25.6.39.5a1.85,1.85,0,0,0,.81.52,2.5,2.5,0,0,0,1.29.17,1.3,1.3,0,0,0,.64-.17,1.82,1.82,0,0,0,.8-.52h0l.39-.5,0,0c0-.1.13-.31.13-.31a2.81,2.81,0,0,0,.13-.33.07.07,0,0,0,0,0c0-.23.07-.47.1-.71l-.09.66s0-.06,0-.09l-.25.6s0,0,0,0l-.39.5,0,0-.5.39,0,0-.6.26h0l-2.43-.64h0l-.39-.51a.05.05,0,0,1,0,0l-.25-.6a.07.07,0,0,1,0,.05l-.09-.67c0,.09,0,.18,0,.27h0l.09.67a.08.08,0,0,0,0,0,.14.14,0,0,0,0,.06.58.58,0,0,1,0,.14l-.08-.67v.07l.09-.67a.08.08,0,0,0,0,0,1.9,1.9,0,0,0,0,1,2.26,2.26,0,0,0,.94,1.63,1.94,1.94,0,0,0,.85.45l.67.09a2.53,2.53,0,0,0,1.26-.34l.5-.39a2.55,2.55,0,0,0,.65-1.11Z"/><path class="cls-17" d="M654.76,347.37c3.21,0,3.22-5,0-5s-3.23,5,0,5Z"/><path class="cls-17" d="M657.17,344.27v0l.09.67v-.12l-.09.66a2.27,2.27,0,0,1,.06-.25l.06-.26a1.89,1.89,0,0,0,0-1A1.85,1.85,0,0,0,657,343a2,2,0,0,0-.65-.7,1.78,1.78,0,0,0-.85-.44l-.66-.09a2.43,2.43,0,0,0-1.26.34l-.51.39a2.5,2.5,0,0,0-.64,1.1l-.09.36a7.72,7.72,0,0,0-.12.82v.08a3.66,3.66,0,0,0,.1.74,2.8,2.8,0,0,0,1.15,1.49,1.71,1.71,0,0,0,.93.3,1.85,1.85,0,0,0,1,0l.6-.26a2.48,2.48,0,0,0,.9-.89l.25-.6a2.5,2.5,0,0,0,0-1.33Z"/><path class="cls-17" d="M645.33,339.59c.06,1.15.11,2.31.14,3.46a2.55,2.55,0,0,0,.73,1.77,1.85,1.85,0,0,0,.8.52,1.89,1.89,0,0,0,1,.21,2.52,2.52,0,0,0,1.76-.73,2.56,2.56,0,0,0,.74-1.77c0-1.15-.08-2.31-.14-3.46a2.61,2.61,0,0,0-.73-1.77,2.83,2.83,0,0,0-1.77-.73,2.49,2.49,0,0,0-2.5,2.5Z"/><path class="cls-17" d="M650.74,344a13.85,13.85,0,0,0-.21-2.8,1.89,1.89,0,0,0-.45-.85,2,2,0,0,0-.7-.65,1.85,1.85,0,0,0-.93-.29,1.89,1.89,0,0,0-1,0l-.6.25a2.56,2.56,0,0,0-.89.9l-.25.6a2.5,2.5,0,0,0,0,1.33c0,.09,0,.19,0,.29l-.09-.67a10.42,10.42,0,0,1,.08,1.85,2.83,2.83,0,0,0,.74,1.77,1.83,1.83,0,0,0,.8.51,1.88,1.88,0,0,0,1,.22l.67-.09a2.5,2.5,0,0,0,1.1-.64l.39-.51a2.43,2.43,0,0,0,.34-1.26Z"/><path class="cls-17" d="M650.8,344.25a9.62,9.62,0,0,0,0-1.42,13.68,13.68,0,0,0-.31-2,2.8,2.8,0,0,0-1.15-1.49,1.77,1.77,0,0,0-.93-.3,1.89,1.89,0,0,0-1,0,2.53,2.53,0,0,0-1.49,1.15l-.25.6a2.5,2.5,0,0,0,0,1.33,8.05,8.05,0,0,1,.18,1l-.09-.66a9.72,9.72,0,0,1,.07,1.79,1.74,1.74,0,0,0,.21,1,2.28,2.28,0,0,0,1.32,1.33,2,2,0,0,0,1,.21,2.52,2.52,0,0,0,1.76-.73l.39-.51a2.54,2.54,0,0,0,.35-1.26Z"/><path class="cls-17" d="M650.27,344.14a3.15,3.15,0,0,0,.49-1.66,2.93,2.93,0,0,0,0-.59c-.08-.65-.17-1.3-.3-1.95l-4.82,1.33a2,2,0,0,1,.07.26l-.09-.67a1.22,1.22,0,0,1,0,.27,1.9,1.9,0,0,0,.22,1,2.3,2.3,0,0,0,1.32,1.32,1.88,1.88,0,0,0,1,.21,2.53,2.53,0,0,0,1.77-.73l.39-.5a2.47,2.47,0,0,0,.34-1.27,4.2,4.2,0,0,0-.06-.93,4.73,4.73,0,0,0-.18-.91l-4.57,1.93,0,.09-.25-.6a2.09,2.09,0,0,1,.11.43l-.09-.67c.07.59.09,1.18.11,1.77a2.61,2.61,0,0,0,.73,1.77,1.93,1.93,0,0,0,.81.51,1.86,1.86,0,0,0,1,.22,2.49,2.49,0,0,0,2.5-2.5c0-.43,0-.85-.07-1.27s-.07-.79-.13-1.19a2,2,0,0,0-.06-.26,4.6,4.6,0,0,0-.35-.82,2.67,2.67,0,0,0-1.49-1.15l-.67-.09a1.88,1.88,0,0,0-1,.21,1.33,1.33,0,0,0-.55.32,1.83,1.83,0,0,0-.64.71,2.45,2.45,0,0,0-.26,1.92,2.91,2.91,0,0,1,.15.58l-.09-.66a2.91,2.91,0,0,1,0,.59h5a2.47,2.47,0,0,0-.05-.6,2.8,2.8,0,0,0-.11-.59,1.89,1.89,0,0,0-.45-.85,2,2,0,0,0-.7-.65,1.85,1.85,0,0,0-.93-.29,1.89,1.89,0,0,0-1,0,2.53,2.53,0,0,0-1.49,1.15l-.25.6a2.5,2.5,0,0,0,0,1.33c.08.4.15.8.2,1.2l-.09-.66a2.8,2.8,0,0,1,0,.71l.08-.66a.65.65,0,0,1-.05.2l.25-.59a1.09,1.09,0,0,1-.08.15,1.8,1.8,0,0,0-.3.92,1.89,1.89,0,0,0,.05,1,1.78,1.78,0,0,0,.44.85,2,2,0,0,0,.7.65,2.55,2.55,0,0,0,1.93.25l.6-.25a2.64,2.64,0,0,0,.89-.9Z"/><path class="cls-17" d="M645.44,340.27a1.32,1.32,0,0,1,.08.33l-.09-.67a1.22,1.22,0,0,1,0,.33,1.85,1.85,0,0,0,.21,1,2,2,0,0,0,.52.81,2.83,2.83,0,0,0,1.77.73l.66-.09a2.53,2.53,0,0,0,1.11-.64l.39-.51a2.53,2.53,0,0,0,.34-1.26,1,1,0,0,0,0-.17V340c0-.25-.07-.53-.1-.74a1.32,1.32,0,0,0-.08-.33,1.94,1.94,0,0,0-.45-.85,1.8,1.8,0,0,0-.7-.64,1.77,1.77,0,0,0-.93-.3,2,2,0,0,0-1,0l-.59.26a2.48,2.48,0,0,0-.9.89l-.25.6a2.5,2.5,0,0,0,0,1.33Z"/><path class="cls-17" d="M650.38,341.52c0-.13-.06-.26-.08-.39l.09.67a3.63,3.63,0,0,1,0-.57,7,7,0,0,0-.13-1.2,2.87,2.87,0,0,0-1.15-1.5,1.85,1.85,0,0,0-.93-.29,1.89,1.89,0,0,0-1,0l-.59.25a2.59,2.59,0,0,0-.9.9l-.25.6a2.5,2.5,0,0,0,0,1.33s0,.07,0,.11l-.09-.66c0,.23,0,.47,0,.7s.07.67.12,1c0,.12,0,.24.08.36a1.89,1.89,0,0,0,.45.85,2,2,0,0,0,.7.65,1.85,1.85,0,0,0,.93.29,1.89,1.89,0,0,0,1,0l.59-.25a2.59,2.59,0,0,0,.9-.9l.25-.6a2.5,2.5,0,0,0,0-1.33Z"/><path class="cls-17" d="M647.8,341.93c3.22,0,3.22-5,0-5s-3.22,5,0,5Z"/><path class="cls-17" d="M647.83,341.9c3.22,0,3.22-5,0-5s-3.22,5,0,5Z"/><path class="cls-17" d="M648.34,345.14c3.22,0,3.22-5,0-5s-3.22,5,0,5Z"/><path class="cls-17" d="M648.34,345.27c3.22,0,3.22-5,0-5s-3.22,5,0,5Z"/><path class="cls-17" d="M648.37,345.27c3.22,0,3.23-5,0-5s-3.22,5,0,5Z"/></svg>